<?xml version="1.0" standalone="no"?><!DOCTYPE svg PUBLIC "-//W3C//DTD SVG 1.1//EN" "http://www.w3.org/Graphics/SVG/1.1/DTD/svg11.dtd"><svg class="icon" width="200px" height="200.00px" viewBox="0 0 1024 1024" version="1.1" xmlns="http://www.w3.org/2000/svg"><path fill="#cdcdcd" d="M883.2 211.2C812.8 294.4 768 403.2 768 512c0 108.8 38.4 217.6 115.2 300.8 70.4-83.2 108.8-185.6 108.8-300.8 0-115.2-38.4-217.6-108.8-300.8zM256 512c0-108.8-38.4-217.6-115.2-300.8C70.4 294.4 32 396.8 32 512c0 115.2 38.4 217.6 108.8 300.8C211.2 729.6 256 620.8 256 512z"  /><path fill="#cdcdcd" d="M851.2 851.2c-83.2-96-128-211.2-128-339.2 0-121.6 44.8-243.2 128-339.2-83.2-83.2-192-134.4-320-140.8v960c128-6.4 243.2-57.6 320-140.8zM486.4 32c-121.6 6.4-236.8 57.6-320 140.8 83.2 96 128 211.2 128 339.2s-44.8 243.2-128 339.2c83.2 83.2 192 134.4 320 140.8V32z"  /></svg>