<?xml version="1.0" standalone="no"?><!DOCTYPE svg PUBLIC "-//W3C//DTD SVG 1.1//EN" "http://www.w3.org/Graphics/SVG/1.1/DTD/svg11.dtd"><svg class="icon" width="200px" height="200.00px" viewBox="0 0 1024 1024" version="1.1" xmlns="http://www.w3.org/2000/svg"><path fill="#cdcdcd" d="M478.48076 438.052974l-179.622189 223.632183c-2.558721 3.070465-6.652674 8.69965-10.234883 16.375813-6.652674 12.281859-10.234883 24.051974-10.234882 34.286856 0 8.69965 3.070465 15.864068 9.211394 22.004998l0.511744 0.511744c1.535232 1.023488 3.070465 2.046977 4.093953 3.070464l2.046977 2.046977c19.958021 16.375812 37.357321 12.281859 70.108945-7.676162 9.723138-6.14093 183.204398-150.964518 211.862069-175.528236 5.629185-4.605697 10.746627-9.211394 15.864068-13.305347-53.733133-14.328836-96.207896-54.244878-113.607196-105.41929zM647.356322 235.402299c-63.456272 0-116.677661 44.521739-129.983009 103.884058-5.117441 21.493253-3.070465 36.333833-3.070464 36.333833 3.582209 69.597201 60.385807 125.377311 130.494752 126.912544 9.211394 0 32.751624-3.070465 32.751624-3.070465 59.362319-13.305347 103.884058-66.526737 103.884058-129.983009-0.511744-74.202899-59.874063-134.076962-134.076961-134.076961zM511.744128 0C229.261369 0 0 228.749625 0 511.744128c0 282.482759 229.261369 511.744128 511.744128 511.744128s511.744128-229.261369 511.744128-511.744128c0-282.994503-229.261369-511.744128-511.744128-511.744128z m135.612194 545.007496h-2.046977c-1.535232 1.023488-3.582209 3.070465-8.69965 7.676162-9.211394 7.676162-248.707646 208.27986-260.989505 216.467766-35.822089 22.516742-62.944528 31.216392-89.555222 19.958021-2.558721-1.023488-5.117441-2.046977-7.164418-3.582209l-36.845577 37.357322c-9.211394 9.211394-24.563718 9.723138-33.775113 0-9.211394-9.211394-9.723138-24.563718 0-33.775113l35.822089-36.333833c-5.629185-9.723138-8.187906-20.469765-8.187906-32.23988 0-16.887556 5.629185-34.286857 14.84058-51.686157 5.117441-9.723138 10.746627-17.911044 14.328835-22.516741l208.791604-259.454273c-0.511744-5.629185-1.023488-11.258371-1.023488-17.399301 0-97.231384 78.808596-176.03998 176.03998-176.03998s176.03998 78.808596 176.03998 176.03998-80.343828 175.528236-177.575212 175.528236z" /></svg>